<svg xmlns="http://www.w3.org/2000/svg" viewBox="0 0 288.48 289.74"><defs><style>.cls-1{fill:#486d7d;}.cls-2{fill:#fff;}</style></defs><g id="レイヤー_2" data-name="レイヤー 2"><g id="レイヤー_1-2" data-name="レイヤー 1"><path class="cls-1" d="M82,279.46c-.53-1.86-1-3.71-1.47-5.5l11.64-2.91c.42,1.66.88,3.39,1.37,5.13Z"/><path class="cls-1" d="M78.16,262.61c-.68-4-1.17-7.88-1.46-11.63l12-.91c.26,3.37.7,6.91,1.32,10.51Zm10.3-23-12-.49a85.36,85.36,0,0,1,1.31-11.87l11.8,2.19A73.25,73.25,0,0,0,88.46,239.64Zm3.75-19.91-11.28-4.09a69.46,69.46,0,0,1,5.1-11l10.41,6A57.5,57.5,0,0,0,92.21,219.73Zm10-17.4-9.27-7.63a84.64,84.64,0,0,1,8.26-8.66l8.09,8.86A72.19,72.19,0,0,0,102.2,202.33Zm15.21-14-7-9.71c3-2.16,6.25-4.32,9.73-6.42l6.2,10.27C123.11,184.38,120.12,186.35,117.41,188.31Zm18.31-11.16-5.58-10.62c3.11-1.63,6.45-3.3,10.19-5.09l5.18,10.82C141.9,174,138.7,175.59,135.72,177.15Zm19.81-9.53-5-10.93,6.78-3.06,3.44-1.54L165.71,163l-3.44,1.55ZM176,158.35l-5.08-10.87c3.7-1.73,6.92-3.3,9.85-4.8l5.46,10.69C183.13,154.93,179.78,156.56,176,158.35Zm20.34-10.49-6.07-10.35c3.29-1.93,6.21-3.81,8.92-5.75l7,9.77C203.11,143.67,199.9,145.74,196.29,147.86ZM215.36,134l-8.16-8.8a58.33,58.33,0,0,0,6.79-7.43l9.55,7.26A70.85,70.85,0,0,1,215.36,134ZM230,114.55l-10.85-5.13a45.38,45.38,0,0,0,3.2-9.23L234,102.9A57.76,57.76,0,0,1,230,114.55Zm5.63-23.74-12-.48c0-.79,0-1.59,0-2.4a73.47,73.47,0,0,0-.45-7.83l11.92-1.33a82.82,82.82,0,0,1,.53,9.16Q235.64,89.39,235.58,90.81Zm-14.18-21c-.75-3.28-1.71-6.72-2.84-10.24L230,55.87c1.24,3.84,2.29,7.62,3.12,11.24Zm-6.5-20.34c-1.28-3.22-2.73-6.56-4.29-10l10.89-5c1.66,3.58,3.18,7.12,4.54,10.53Z"/><rect class="cls-1" x="44.94" y="78.33" width="9" height="198.36" transform="translate(-62.36 31.04) rotate(-21.79)"/><rect class="cls-1" x="242.16" y="15.38" width="9" height="102.51" transform="translate(7.03 155.29) rotate(-35.42)"/><circle class="cls-1" cx="276.37" cy="108.4" r="11.62"/><path class="cls-1" d="M276.37,120.52a12.12,12.12,0,1,1,12.11-12.12A12.14,12.14,0,0,1,276.37,120.52Zm0-23.23a11.12,11.12,0,1,0,11.11,11.11A11.13,11.13,0,0,0,276.37,97.29Z"/><circle class="cls-1" cx="11.62" cy="85.42" r="11.62"/><rect class="cls-2" x="73.39" y="259.47" width="24.59" height="24.59" transform="translate(-77.82 38.39) rotate(-17.52)"/><path class="cls-1" d="M78.28,286.87l-7.35-23.3,23.29-7.35,7.36,23.3Zm-6.09-22.64,6.74,21.38,21.39-6.75-6.75-21.38Z"/><path class="cls-1" d="M78.61,289.74a3.49,3.49,0,0,1-3.34-2.45l-7-22.34a3.47,3.47,0,0,1,.23-2.66,3.51,3.51,0,0,1,2-1.73l22.34-7.05a3.51,3.51,0,0,1,4.4,2.29l7.05,22.34a3.55,3.55,0,0,1-.24,2.67,3.5,3.5,0,0,1-2,1.72l-22.34,7.05A3.48,3.48,0,0,1,78.61,289.74ZM76,266.18l4.94,15.67,15.67-4.94-5-15.67Z"/><path class="cls-1" d="M203.2,35.54l-10.81-21.9L214.3,2.83l10.8,21.91Zm-9.47-21.45,9.92,20.11,20.12-9.92L213.84,4.17Z"/><path class="cls-1" d="M203.43,38.37a3.66,3.66,0,0,1-1.13-.18,3.51,3.51,0,0,1-2-1.77l-10.37-21a3.5,3.5,0,0,1,1.59-4.68l21-10.37A3.51,3.51,0,0,1,217.21,2l10.36,21A3.5,3.5,0,0,1,226,27.65L205,38A3.52,3.52,0,0,1,203.43,38.37Zm-5.68-22.91L205,30.19l14.73-7.27L212.48,8.19Z"/></g></g></svg>