<svg xmlns="http://www.w3.org/2000/svg" viewBox="0 0 289.57 250.16"><defs><style>.cls-1{fill:#fff;}.cls-2{fill:#486d7d;}</style></defs><g id="レイヤー_2" data-name="レイヤー 2"><g id="レイヤー_1-2" data-name="レイヤー 1"><rect class="cls-1" x="6.34" y="5.5" width="273.16" height="187.76" rx="8.51"/><path class="cls-2" d="M271,198.76H14.85a14,14,0,0,1-14-14V14a14,14,0,0,1,14-14H271a14,14,0,0,1,14,14V184.75A14,14,0,0,1,271,198.76ZM14.85,11a3,3,0,0,0-3,3V184.75a3,3,0,0,0,3,3H271a3,3,0,0,0,3-3V14a3,3,0,0,0-3-3Z"/><rect class="cls-2" x="6.34" y="154.08" width="273.16" height="39.18"/><line class="cls-2" y1="173.67" x2="289.57" y2="173.67"/><rect class="cls-1" y="171.17" width="289.57" height="5"/><polygon class="cls-2" points="193.59 229.14 95.99 229.14 105.28 205.5 185.22 205.5 193.59 229.14"/><path class="cls-2" d="M82.11,234.91h127A14.05,14.05,0,0,1,223.15,249v1.2a0,0,0,0,1,0,0H68.06a0,0,0,0,1,0,0V249A14.05,14.05,0,0,1,82.11,234.91Z"/><path class="cls-2" d="M63.6,93.86V85.63l40.15-20.35v9.77L73.18,89.79l30.57,14.92v9.77Z"/><path class="cls-2" d="M153.49,49.82a66.07,66.07,0,0,0,7.87,2.71l-32.2,71.36c-2.35-1-5.52-2.08-7.78-2.81Z"/><path class="cls-2" d="M219.05,85.81V94L178.9,114.48v-9.86l30.66-14.74L178.9,75V65.28Z"/></g></g></svg>