<svg xmlns="http://www.w3.org/2000/svg" viewBox="0 0 205.63 202.52"><defs><style>.cls-1{fill:#486d7d;}.cls-2{fill:#fff;}</style></defs><g id="レイヤー_2" data-name="レイヤー 2"><g id="レイヤー_1-2" data-name="レイヤー 1"><path class="cls-1" d="M77.72,107.75c.13-.31.27-.61.43-.91C78,107.14,77.85,107.44,77.72,107.75Z"/><path class="cls-1" d="M77.35,108.68c.08-.22.16-.43.25-.65C77.51,108.25,77.43,108.46,77.35,108.68Z"/><path class="cls-1" d="M77,109.67c.06-.22.13-.44.2-.66C77.17,109.23,77.1,109.45,77,109.67Z"/><path class="cls-1" d="M78.15,106.84c.15-.29.32-.58.5-.87C78.47,106.26,78.3,106.55,78.15,106.84Z"/><path class="cls-1" d="M80.1,104c.24-.26.47-.52.73-.76C80.57,103.51,80.34,103.77,80.1,104Z"/><path class="cls-1" d="M78.82,105.71c.13-.2.27-.4.41-.59C79.09,105.31,79,105.51,78.82,105.71Z"/><path class="cls-1" d="M79.44,104.83l.46-.56Z"/><path class="cls-1" d="M76.53,112.88c0-.23,0-.45,0-.68C76.56,112.43,76.54,112.65,76.53,112.88Z"/><path class="cls-1" d="M76.62,115.19c0-.32-.06-.65-.08-1C76.56,114.54,76.58,114.87,76.62,115.19Z"/><path class="cls-1" d="M76.53,113.91c0-.23,0-.46,0-.68C76.52,113.45,76.52,113.68,76.53,113.91Z"/><path class="cls-1" d="M76.75,110.92q.09-.48.21-1Q76.84,110.44,76.75,110.92Z"/><path class="cls-1" d="M100.74,123.73c-.25.24-.5.47-.76.69C100.24,124.2,100.49,124,100.74,123.73Z"/><path class="cls-1" d="M76.61,111.89c0-.32.08-.64.14-1C76.69,111.25,76.64,111.57,76.61,111.89Z"/><path class="cls-1" d="M97,126.36c-.22.11-.45.21-.68.3C96.53,126.57,96.76,126.47,97,126.36Z"/><path class="cls-1" d="M91.93,127.72l-.78,0Z"/><path class="cls-1" d="M92.91,127.61l-.67.08Z"/><path class="cls-1" d="M94.07,127.39c-.29.07-.57.12-.86.17C93.5,127.51,93.78,127.46,94.07,127.39Z"/><path class="cls-1" d="M89.76,127.72c-.24,0-.47,0-.71-.07C89.29,127.68,89.52,127.71,89.76,127.72Z"/><path class="cls-1" d="M91,127.77q-.48,0-1,0Q90.49,127.77,91,127.77Z"/><path class="cls-1" d="M98.06,125.78c-.28.17-.57.33-.86.47C97.49,126.11,97.78,126,98.06,125.78Z"/><path class="cls-1" d="M95.08,127.11c-.31.1-.62.19-.93.26C94.46,127.3,94.77,127.21,95.08,127.11Z"/><path class="cls-1" d="M98.9,125.24c-.21.15-.43.29-.65.43C98.47,125.53,98.69,125.39,98.9,125.24Z"/><path class="cls-1" d="M99.74,124.61l-.57.44Z"/><path class="cls-1" d="M96,126.78q-.33.14-.66.24Q95.68,126.92,96,126.78Z"/><path class="cls-1" d="M184.18,83.61l18.87-12.72c3.09-3,3.46-7.64.82-10.35L146.8,1.89c-2.63-2.71-7.28-2.48-10.37.53L122.08,19.79Z"/><path class="cls-1" d="M158.37,71.16l-8.12-8.35-7-7.18L135,47.1,116.71,28.34S77.4,45.62,61.7,60.19C48.24,72.69,10.57,164.81.14,190.74a1.55,1.55,0,0,0,2.63,1.58L74.6,122.43A7.22,7.22,0,0,0,76.75,116c0-.28-.1-.56-.13-.85s-.06-.65-.08-1c0-.11,0-.21,0-.31s0-.46,0-.68,0-.23,0-.35,0-.45,0-.68l0-.31c0-.32.08-.64.14-1h0q.09-.48.21-1c0-.09.05-.19.08-.29s.13-.44.2-.66.07-.22.11-.33.16-.43.25-.65l.12-.28c.13-.31.27-.61.43-.91s.32-.58.5-.87c.06-.09.12-.17.17-.26s.27-.4.41-.59l.21-.29.46-.56.2-.24c.24-.26.47-.52.73-.76a13.87,13.87,0,0,1,1.44-1.22A14.26,14.26,0,0,1,102,122.32a12.74,12.74,0,0,1-1.25,1.41c-.25.24-.5.47-.76.69l-.24.19-.57.44-.27.19c-.21.15-.43.29-.65.43l-.19.11c-.28.17-.57.33-.86.47l-.22.11c-.22.11-.45.21-.68.3l-.29.12q-.33.14-.66.24l-.27.09c-.31.1-.62.19-.93.26l-.08,0c-.29.07-.57.12-.86.17l-.3,0-.67.08-.31,0-.78,0H91q-.48,0-1,0l-.25,0c-.24,0-.47,0-.71-.07l-.31,0-.26,0a8.28,8.28,0,0,0-7.09,2.22L9.25,200a1.4,1.4,0,0,0,1.36,2.42c25.27-9.36,119.87-45,132.84-58.2,15-15.29,33.35-54.11,33.35-54.11Z"/><path class="cls-2" d="M89.76,127.72l.25,0q.48,0,1,0h.18l.78,0,.31,0,.67-.08.3,0c.29,0,.57-.1.86-.17l.08,0c.31-.07.62-.16.93-.26l.27-.09q.33-.1.66-.24l.29-.12c.23-.09.46-.19.68-.3l.22-.11c.29-.14.58-.3.86-.47l.19-.11c.22-.14.44-.28.65-.43l.27-.19.57-.44.24-.19c.26-.22.51-.45.76-.69a12.74,12.74,0,0,0,1.25-1.41,14.26,14.26,0,0,0,1.92-14.42,14.28,14.28,0,0,0-21.64-5.85,13.87,13.87,0,0,0-1.44,1.22c-.26.24-.49.5-.73.76l-.2.24-.46.56-.21.29c-.14.19-.28.39-.41.59s-.11.17-.17.26c-.18.29-.35.58-.5.87s-.3.6-.43.91l-.12.28c-.09.22-.17.43-.25.65s-.08.22-.11.33-.14.44-.2.66-.06.2-.08.29q-.12.48-.21,1h0c-.06.32-.11.64-.14,1l0,.31c0,.23,0,.45,0,.68s0,.23,0,.35,0,.45,0,.68,0,.2,0,.31c0,.32,0,.65.08,1a14.1,14.1,0,0,0,1.15,4.15,14,14,0,0,0,7,7.12,14.1,14.1,0,0,0,3.92,1.15l.31,0C89.29,127.68,89.52,127.71,89.76,127.72Z"/></g></g></svg>